# xmcd
#
# Track frame offsets:
#	150
#	13570
#	25487
#	40767
#	57202
#	68545
#	86471
#	102277
#	117111
#	131065
#	144085
#	158288
#	173058
#	186960
#	203513
#	216385
#	230965
#	243734
#	260039
#	276861
#	293662
#
# Disc length: 4160 seconds
#
# Revision: 0
# Processed by: cddbd v1.5.2PL0 Copyright (c) Steve Scherf et al.
# Submitted via: EZCDAudioConverter 3.1.0.1
#
DISCID=29103e15
DTITLE=Nu Country Traxx Volume 221 US
DYEAR=2017
DGENRE=country
TTITLE0=Luke Bryan - Light It Up
TTITLE1=Thomas Rhett - Unforgettable
TTITLE2=Cole Swindell - Stay Downtown
TTITLE3=Billy Currington - Wake Me Up
TTITLE4=Dylan Scott - Hooked
TTITLE5=Rascal Flatts - Back To Us
TTITLE6=Brett Eldredge - The Long Way
TTITLE7=Seth Ennis - Look At You
TTITLE8=Justin Moore - Kinda Don't Care
TTITLE9=Drew Baldridge - Guns and Roses
TTITLE10=Jessica Lynn - Crazy Idea
TTITLE11=Aaron Pritchett - VW Bus
TTITLE12=Shane Owens - 19
TTITLE13=Bobby Wills - In Comes The Night
TTITLE14=Lewis Brice - Best Ex Ever
TTITLE15=Cody Joe Hodges - Roll That Way
TTITLE16=Chase Bryant - Hell If I Know
TTITLE17=Ashley Campbell - Remembering
TTITLE18=The Band Steele - Tan Lines
TTITLE19=Elvis Carden - Lay Me Down (Draped in the Red White and Blue)
TTITLE20=Wayne Warner - God For A Minute
EXTD=
EXTT0=
EXTT1=
EXTT2=
EXTT3=
EXTT4=
EXTT5=
EXTT6=
EXTT7=
EXTT8=
EXTT9=
EXTT10=
EXTT11=
EXTT12=
EXTT13=
EXTT14=
EXTT15=
EXTT16=
EXTT17=
EXTT18=
EXTT19=
EXTT20=
PLAYORDER=
